<svg width="240" height="82" viewBox="0 0 240 82" fill="none" xmlns="http://www.w3.org/2000/svg">
<path d="M8.4375 66C7.4135 66 6.4535 65.7867 5.5575 65.36C4.70416 64.8907 4.2775 64.208 4.2775 63.312V21.84C4.2775 21.1147 4.57616 20.496 5.1735 19.984C5.77083 19.472 6.53883 19.216 7.4775 19.216H20.2775C23.0082 19.216 25.4615 19.6853 27.6375 20.624C29.8562 21.5627 31.6055 23.0987 32.8855 25.232C34.1655 27.3227 34.8055 30.1173 34.8055 33.616V34C34.8055 37.4987 34.1442 40.3147 32.8215 42.448C31.4988 44.5813 29.6855 46.1387 27.3815 47.12C25.1202 48.0587 22.5815 48.528 19.7655 48.528H12.5975V63.312C12.5975 64.208 12.1708 64.8907 11.3175 65.36C10.4642 65.7867 9.50416 66 8.4375 66ZM12.5975 42H19.7655C21.8988 42 23.5415 41.4027 24.6935 40.208C25.8882 38.9707 26.4855 37.1147 26.4855 34.64V33.936C26.4855 31.4187 25.8882 29.5627 24.6935 28.368C23.5415 27.1307 21.8988 26.512 19.7655 26.512H12.5975V42Z" fill="#6E951B"/>
<path d="M60.8305 66.384C58.0145 66.384 55.4758 65.9147 53.2145 64.976C50.9532 63.9947 49.1398 62.4373 47.7745 60.304C46.4518 58.128 45.7905 55.248 45.7905 51.664V33.936C45.7905 30.352 46.4518 27.4933 47.7745 25.36C49.1398 23.184 50.9318 21.6267 53.1505 20.688C55.4118 19.7067 57.9718 19.216 60.8305 19.216C63.6465 19.216 66.1852 19.7067 68.4465 20.688C70.7505 21.6267 72.5638 23.184 73.8865 25.36C75.2092 27.4933 75.8705 30.352 75.8705 33.936V51.664C75.8705 55.248 75.2092 58.128 73.8865 60.304C72.5638 62.4373 70.7505 63.9947 68.4465 64.976C66.1852 65.9147 63.6465 66.384 60.8305 66.384ZM60.8305 59.088C62.9212 59.088 64.5638 58.4907 65.7585 57.296C66.9532 56.1013 67.5505 54.224 67.5505 51.664V33.936C67.5505 31.376 66.9532 29.4987 65.7585 28.304C64.5638 27.1093 62.9212 26.512 60.8305 26.512C58.7398 26.512 57.0972 27.1093 55.9025 28.304C54.7505 29.4987 54.1745 31.376 54.1745 33.936V51.664C54.1745 54.224 54.7505 56.1013 55.9025 57.296C57.0972 58.4907 58.7398 59.088 60.8305 59.088Z" fill="#6E951B"/>
<path d="M101.933 66.576C99.1592 66.576 96.6418 66.1707 94.3805 65.36C92.1618 64.5493 90.3912 63.5467 89.0685 62.352C87.7885 61.1147 87.1485 59.8773 87.1485 58.64C87.1485 58.0427 87.2978 57.4027 87.5965 56.72C87.9378 55.9947 88.3858 55.3973 88.9405 54.928C89.4952 54.416 90.1138 54.16 90.7965 54.16C91.4792 54.16 92.1192 54.416 92.7165 54.928C93.3138 55.3973 93.9965 55.9733 94.7645 56.656C95.5325 57.296 96.4712 57.872 97.5805 58.384C98.6898 58.8533 100.055 59.088 101.676 59.088C102.956 59.088 104.13 58.896 105.197 58.512C106.306 58.0853 107.18 57.4667 107.82 56.656C108.503 55.8453 108.844 54.8 108.844 53.52C108.844 52.1547 108.482 51.0027 107.757 50.064C107.031 49.1253 106.05 48.3147 104.812 47.632C103.575 46.9493 102.231 46.288 100.781 45.648C99.3298 45.008 97.8578 44.3253 96.3645 43.6C94.9138 42.8747 93.5698 42 92.3325 40.976C91.1378 39.952 90.1565 38.6933 89.3885 37.2C88.6632 35.7067 88.3005 33.872 88.3005 31.696C88.3005 29.3067 88.7485 27.3013 89.6445 25.68C90.5832 24.0587 91.7992 22.7573 93.2925 21.776C94.8285 20.752 96.5138 20.0267 98.3485 19.6C100.183 19.1307 102.018 18.896 103.853 18.896C104.834 18.896 105.986 18.9813 107.309 19.152C108.674 19.28 110.018 19.536 111.34 19.92C112.706 20.304 113.815 20.8373 114.669 21.52C115.564 22.16 116.012 23.0133 116.012 24.08C116.012 24.5493 115.885 25.1253 115.629 25.808C115.415 26.4907 115.052 27.1093 114.54 27.664C114.071 28.2187 113.452 28.496 112.685 28.496C112.002 28.496 111.319 28.304 110.637 27.92C109.997 27.4933 109.143 27.088 108.076 26.704C107.052 26.2773 105.645 26.064 103.853 26.064C102.359 26.064 101.058 26.256 99.9485 26.64C98.8392 27.024 98.0072 27.5787 97.4525 28.304C96.8978 28.9867 96.6205 29.8613 96.6205 30.928C96.6205 32.0373 96.9832 32.976 97.7085 33.744C98.4765 34.512 99.4578 35.1947 100.652 35.792C101.89 36.3893 103.234 36.9867 104.685 37.584C106.135 38.1813 107.586 38.8853 109.036 39.696C110.53 40.464 111.895 41.4027 113.132 42.512C114.37 43.6213 115.351 45.008 116.076 46.672C116.802 48.2933 117.165 50.2987 117.165 52.688C117.165 55.7173 116.503 58.2773 115.18 60.368C113.858 62.416 112.045 63.9733 109.741 65.04C107.479 66.064 104.877 66.576 101.933 66.576Z" fill="#6E951B"/>
<path d="M142.155 66C141.089 66 140.129 65.7867 139.275 65.36C138.422 64.8907 137.995 64.208 137.995 63.312V26.704H128.587C127.777 26.704 127.137 26.32 126.667 25.552C126.198 24.784 125.963 23.9093 125.963 22.928C125.963 22.032 126.177 21.2 126.603 20.432C127.03 19.6213 127.691 19.216 128.587 19.216H155.66C156.598 19.216 157.259 19.6213 157.643 20.432C158.07 21.2 158.283 22.032 158.283 22.928C158.283 23.9093 158.049 24.784 157.579 25.552C157.153 26.32 156.513 26.704 155.66 26.704H146.315V63.312C146.315 64.208 145.867 64.8907 144.971 65.36C144.118 65.7867 143.179 66 142.155 66Z" fill="#6E951B"/>
<path d="M172.775 66C171.88 66 171.048 65.7867 170.279 65.36C169.511 64.8907 169.128 64.208 169.128 63.312V21.904C169.128 21.008 169.511 20.3467 170.279 19.92C171.048 19.4507 171.88 19.216 172.775 19.216H195.56C196.498 19.216 197.16 19.6 197.544 20.368C197.97 21.136 198.184 21.9467 198.184 22.8C198.184 23.824 197.949 24.6987 197.48 25.424C197.053 26.1493 196.413 26.512 195.56 26.512H177.448V39.312H187.176C188.029 39.312 188.669 39.6533 189.096 40.336C189.565 40.976 189.799 41.744 189.799 42.64C189.799 43.3653 189.586 44.0907 189.16 44.816C188.775 45.4987 188.114 45.84 187.176 45.84H177.448V58.704H195.56C196.413 58.704 197.053 59.0667 197.48 59.792C197.949 60.5173 198.184 61.392 198.184 62.416C198.184 63.2693 197.97 64.08 197.544 64.848C197.16 65.616 196.498 66 195.56 66H172.775Z" fill="#6E951B"/>
<path d="M213.113 66C212.217 66 211.385 65.7867 210.617 65.36C209.849 64.8907 209.465 64.208 209.465 63.312V21.904C209.465 21.008 209.849 20.3467 210.617 19.92C211.385 19.4507 212.217 19.216 213.113 19.216H235.897C236.836 19.216 237.497 19.6 237.881 20.368C238.308 21.136 238.521 21.9467 238.521 22.8C238.521 23.824 238.286 24.6987 237.817 25.424C237.39 26.1493 236.75 26.512 235.897 26.512H217.785V39.312H227.513C228.366 39.312 229.006 39.6533 229.433 40.336C229.902 40.976 230.137 41.744 230.137 42.64C230.137 43.3653 229.924 44.0907 229.497 44.816C229.113 45.4987 228.452 45.84 227.513 45.84H217.785V58.704H235.897C236.75 58.704 237.39 59.0667 237.817 59.792C238.286 60.5173 238.521 61.392 238.521 62.416C238.521 63.2693 238.308 64.08 237.881 64.848C237.497 65.616 236.836 66 235.897 66H213.113Z" fill="#6E951B"/>
<path d="M220 2H20V14H24V6H216V16H220V2Z" fill="#6E951B"/>
<path d="M20 82H220V70H216V78H24V70H20V82Z" fill="#6E951B"/>
</svg>
